<mxfile host="app.diagrams.net" modified="2022-05-24T12:30:57.084Z" agent="5.0 (X11; Linux x86_64) AppleWebKit/537.36 (KHTML, like Gecko) Chrome/101.0.4951.64 Safari/537.36" etag="gOCg6LcTCOT_GNl9Ampq" version="18.1.2" type="github">
  <diagram id="R2lEEEUBdFMjLlhIrx00" name="Page-1">
    <mxGraphModel dx="1640" dy="922" grid="1" gridSize="10" guides="1" tooltips="1" connect="1" arrows="1" fold="1" page="1" pageScale="1" pageWidth="850" pageHeight="1100" math="0" shadow="0" extFonts="Permanent Marker^https://fonts.googleapis.com/css?family=Permanent+Marker">
      <root>
        <mxCell id="0" />
        <mxCell id="1" parent="0" />
        <mxCell id="NL7f1OS2Pc4bBC0GKJp5-7" style="edgeStyle=orthogonalEdgeStyle;rounded=0;orthogonalLoop=1;jettySize=auto;html=1;exitX=0;exitY=0.75;exitDx=0;exitDy=0;entryX=1;entryY=0.75;entryDx=0;entryDy=0;" edge="1" parent="1" source="NL7f1OS2Pc4bBC0GKJp5-4" target="C2kHwnKx9TWG-dQDNKI_-15">
          <mxGeometry relative="1" as="geometry" />
        </mxCell>
        <mxCell id="NL7f1OS2Pc4bBC0GKJp5-4" value="" style="rounded=0;whiteSpace=wrap;html=1;" vertex="1" parent="1">
          <mxGeometry x="590" y="170" width="120" height="40" as="geometry" />
        </mxCell>
        <mxCell id="C2kHwnKx9TWG-dQDNKI_-4" style="edgeStyle=orthogonalEdgeStyle;rounded=0;orthogonalLoop=1;jettySize=auto;html=1;exitX=1;exitY=0.5;exitDx=0;exitDy=0;entryX=0.5;entryY=0;entryDx=0;entryDy=0;entryPerimeter=0;" parent="1" source="C2kHwnKx9TWG-dQDNKI_-3" target="C2kHwnKx9TWG-dQDNKI_-1" edge="1">
          <mxGeometry relative="1" as="geometry" />
        </mxCell>
        <mxCell id="C2kHwnKx9TWG-dQDNKI_-3" value="" style="rounded=0;whiteSpace=wrap;html=1;" parent="1" vertex="1">
          <mxGeometry x="40" y="170" width="110" height="40" as="geometry" />
        </mxCell>
        <mxCell id="C2kHwnKx9TWG-dQDNKI_-12" style="edgeStyle=orthogonalEdgeStyle;rounded=0;orthogonalLoop=1;jettySize=auto;html=1;exitX=0.5;exitY=1;exitDx=0;exitDy=0;exitPerimeter=0;entryX=0;entryY=0.5;entryDx=0;entryDy=0;fontSize=10;" parent="1" source="C2kHwnKx9TWG-dQDNKI_-1" target="C2kHwnKx9TWG-dQDNKI_-11" edge="1">
          <mxGeometry relative="1" as="geometry" />
        </mxCell>
        <mxCell id="C2kHwnKx9TWG-dQDNKI_-1" value="" style="shape=cylinder3;whiteSpace=wrap;html=1;boundedLbl=1;backgroundOutline=1;size=3.6869659423828125;rotation=-90;" parent="1" vertex="1">
          <mxGeometry x="210" y="130" width="60" height="120" as="geometry" />
        </mxCell>
        <mxCell id="C2kHwnKx9TWG-dQDNKI_-2" value="&lt;a class=&quot;js-navigation-open Link--primary&quot; title=&quot;sendImage-to-rabbitmqDLX2&quot; href=&quot;https://github.com/developer-onizuka/rabbitMQ_KEDA_Csharp2/tree/main/sendImage-to-rabbitmqDLX2&quot; style=&quot;box-sizing: border-box ; background-color: rgb(255 , 255 , 255) ; transition: 80ms cubic-bezier(0.33 , 1 , 0.68 , 1) 0s , 0s ease 0s , 0s ease 0s , 0s ease 0s ; font-family: , &amp;#34;blinkmacsystemfont&amp;#34; , &amp;#34;segoe ui&amp;#34; , &amp;#34;helvetica&amp;#34; , &amp;#34;arial&amp;#34; , sans-serif , &amp;#34;apple color emoji&amp;#34; , &amp;#34;segoe ui emoji&amp;#34;&quot;&gt;&lt;font color=&quot;#000000&quot;&gt;sendImage-to-rabbitmqDLX2&lt;/font&gt;&lt;/a&gt;" style="text;html=1;strokeColor=none;fillColor=none;align=center;verticalAlign=middle;whiteSpace=wrap;rounded=0;" parent="1" vertex="1">
          <mxGeometry x="45" y="175" width="100" height="30" as="geometry" />
        </mxCell>
        <mxCell id="C2kHwnKx9TWG-dQDNKI_-5" value="" style="shape=note;whiteSpace=wrap;html=1;backgroundOutline=1;darkOpacity=0.05;size=8;" parent="1" vertex="1">
          <mxGeometry x="205" y="180" width="20" height="20" as="geometry" />
        </mxCell>
        <mxCell id="C2kHwnKx9TWG-dQDNKI_-8" value="" style="shape=note;whiteSpace=wrap;html=1;backgroundOutline=1;darkOpacity=0.05;size=8;" parent="1" vertex="1">
          <mxGeometry x="235" y="180" width="20" height="20" as="geometry" />
        </mxCell>
        <mxCell id="C2kHwnKx9TWG-dQDNKI_-9" value="" style="shape=note;whiteSpace=wrap;html=1;backgroundOutline=1;darkOpacity=0.05;size=8;" parent="1" vertex="1">
          <mxGeometry x="265" y="180" width="20" height="20" as="geometry" />
        </mxCell>
        <mxCell id="C2kHwnKx9TWG-dQDNKI_-20" style="edgeStyle=orthogonalEdgeStyle;rounded=0;orthogonalLoop=1;jettySize=auto;html=1;exitX=1;exitY=0.5;exitDx=0;exitDy=0;fontSize=12;fontColor=#000000;" parent="1" source="C2kHwnKx9TWG-dQDNKI_-11" edge="1">
          <mxGeometry relative="1" as="geometry">
            <mxPoint x="440" y="190" as="targetPoint" />
          </mxGeometry>
        </mxCell>
        <mxCell id="C2kHwnKx9TWG-dQDNKI_-11" value="EmployeeEntity" style="swimlane;fontStyle=0;fontSize=10;" parent="1" vertex="1">
          <mxGeometry x="330" y="160" width="80" height="60" as="geometry">
            <mxRectangle x="390" y="170" width="120" height="23" as="alternateBounds" />
          </mxGeometry>
        </mxCell>
        <mxCell id="C2kHwnKx9TWG-dQDNKI_-34" style="edgeStyle=orthogonalEdgeStyle;rounded=0;orthogonalLoop=1;jettySize=auto;html=1;exitX=1;exitY=0.5;exitDx=0;exitDy=0;fontSize=12;fontColor=#000000;entryX=0.5;entryY=0;entryDx=0;entryDy=0;entryPerimeter=0;" parent="1" source="C2kHwnKx9TWG-dQDNKI_-15" target="C2kHwnKx9TWG-dQDNKI_-30" edge="1">
          <mxGeometry relative="1" as="geometry">
            <mxPoint x="290" y="320" as="targetPoint" />
            <Array as="points">
              <mxPoint x="495" y="190" />
              <mxPoint x="495" y="250" />
              <mxPoint x="150" y="250" />
              <mxPoint x="150" y="320" />
            </Array>
          </mxGeometry>
        </mxCell>
        <mxCell id="NL7f1OS2Pc4bBC0GKJp5-5" style="edgeStyle=orthogonalEdgeStyle;rounded=0;orthogonalLoop=1;jettySize=auto;html=1;exitX=1;exitY=0.25;exitDx=0;exitDy=0;entryX=0;entryY=0.25;entryDx=0;entryDy=0;" edge="1" parent="1" source="C2kHwnKx9TWG-dQDNKI_-15" target="NL7f1OS2Pc4bBC0GKJp5-4">
          <mxGeometry relative="1" as="geometry" />
        </mxCell>
        <mxCell id="C2kHwnKx9TWG-dQDNKI_-15" value="" style="rounded=0;whiteSpace=wrap;html=1;" parent="1" vertex="1">
          <mxGeometry x="440" y="170" width="110" height="40" as="geometry" />
        </mxCell>
        <mxCell id="C2kHwnKx9TWG-dQDNKI_-16" value="&lt;a class=&quot;js-navigation-open Link--primary&quot; title=&quot;rabbitmq-to-faceDetectedMQ&quot; href=&quot;https://github.com/developer-onizuka/rabbitMQ_KEDA_Csharp2/tree/main/rabbitmq-to-faceDetectedMQ&quot; style=&quot;box-sizing: border-box ; background-color: rgb(255 , 255 , 255) ; transition: 80ms cubic-bezier(0.33 , 1 , 0.68 , 1) 0s , 0s ease 0s , 0s ease 0s , 0s ease 0s ; font-family: , &amp;quot;blinkmacsystemfont&amp;quot; , &amp;quot;segoe ui&amp;quot; , &amp;quot;helvetica&amp;quot; , &amp;quot;arial&amp;quot; , sans-serif , &amp;quot;apple color emoji&amp;quot; , &amp;quot;segoe ui emoji&amp;quot;&quot;&gt;&lt;font color=&quot;#000000&quot; style=&quot;font-size: 12px&quot;&gt;rabbitmq-to-faceDetectedMQ&lt;/font&gt;&lt;/a&gt;2" style="text;html=1;strokeColor=none;fillColor=none;align=center;verticalAlign=middle;whiteSpace=wrap;rounded=0;" parent="1" vertex="1">
          <mxGeometry x="445" y="175" width="100" height="30" as="geometry" />
        </mxCell>
        <mxCell id="C2kHwnKx9TWG-dQDNKI_-19" value="dlx.employee-queue-tmp" style="text;html=1;strokeColor=none;fillColor=none;align=center;verticalAlign=middle;whiteSpace=wrap;rounded=0;fontSize=12;fontColor=#000000;" parent="1" vertex="1">
          <mxGeometry x="160" y="130" width="160" height="30" as="geometry" />
        </mxCell>
        <mxCell id="C2kHwnKx9TWG-dQDNKI_-40" style="edgeStyle=orthogonalEdgeStyle;rounded=0;orthogonalLoop=1;jettySize=auto;html=1;exitX=0.5;exitY=1;exitDx=0;exitDy=0;exitPerimeter=0;entryX=0;entryY=0.5;entryDx=0;entryDy=0;fontSize=12;fontColor=#000000;" parent="1" target="C2kHwnKx9TWG-dQDNKI_-38" edge="1">
          <mxGeometry relative="1" as="geometry">
            <mxPoint x="410" y="320" as="sourcePoint" />
          </mxGeometry>
        </mxCell>
        <mxCell id="7e2twPVxO9YFiDqF_idK-2" style="edgeStyle=orthogonalEdgeStyle;rounded=0;orthogonalLoop=1;jettySize=auto;html=1;exitX=0.5;exitY=1;exitDx=0;exitDy=0;exitPerimeter=0;entryX=0;entryY=0.5;entryDx=0;entryDy=0;" parent="1" source="C2kHwnKx9TWG-dQDNKI_-30" target="7e2twPVxO9YFiDqF_idK-1" edge="1">
          <mxGeometry relative="1" as="geometry" />
        </mxCell>
        <mxCell id="C2kHwnKx9TWG-dQDNKI_-30" value="" style="shape=cylinder3;whiteSpace=wrap;html=1;boundedLbl=1;backgroundOutline=1;size=3.6869659423828125;rotation=-90;" parent="1" vertex="1">
          <mxGeometry x="210" y="260" width="60" height="120" as="geometry" />
        </mxCell>
        <mxCell id="C2kHwnKx9TWG-dQDNKI_-31" value="" style="shape=note;whiteSpace=wrap;html=1;backgroundOutline=1;darkOpacity=0.05;size=8;" parent="1" vertex="1">
          <mxGeometry x="205" y="310" width="20" height="20" as="geometry" />
        </mxCell>
        <mxCell id="C2kHwnKx9TWG-dQDNKI_-32" value="" style="shape=note;whiteSpace=wrap;html=1;backgroundOutline=1;darkOpacity=0.05;size=8;" parent="1" vertex="1">
          <mxGeometry x="235" y="310" width="20" height="20" as="geometry" />
        </mxCell>
        <mxCell id="C2kHwnKx9TWG-dQDNKI_-33" value="" style="shape=note;whiteSpace=wrap;html=1;backgroundOutline=1;darkOpacity=0.05;size=8;" parent="1" vertex="1">
          <mxGeometry x="265" y="310" width="20" height="20" as="geometry" />
        </mxCell>
        <mxCell id="C2kHwnKx9TWG-dQDNKI_-37" value="dlx.employee-queue" style="text;html=1;strokeColor=none;fillColor=none;align=center;verticalAlign=middle;whiteSpace=wrap;rounded=0;fontSize=12;fontColor=#000000;" parent="1" vertex="1">
          <mxGeometry x="160" y="260" width="160" height="30" as="geometry" />
        </mxCell>
        <mxCell id="C2kHwnKx9TWG-dQDNKI_-42" style="edgeStyle=orthogonalEdgeStyle;rounded=0;orthogonalLoop=1;jettySize=auto;html=1;exitX=1;exitY=0.5;exitDx=0;exitDy=0;entryX=0;entryY=0.5;entryDx=0;entryDy=0;entryPerimeter=0;fontSize=12;fontColor=#000000;" parent="1" source="C2kHwnKx9TWG-dQDNKI_-38" target="C2kHwnKx9TWG-dQDNKI_-41" edge="1">
          <mxGeometry relative="1" as="geometry" />
        </mxCell>
        <mxCell id="C2kHwnKx9TWG-dQDNKI_-38" value="" style="rounded=0;whiteSpace=wrap;html=1;" parent="1" vertex="1">
          <mxGeometry x="440" y="300" width="110" height="40" as="geometry" />
        </mxCell>
        <mxCell id="C2kHwnKx9TWG-dQDNKI_-39" value="&lt;a class=&quot;js-navigation-open Link--primary&quot; title=&quot;rabbitmq-to-hybridCloud2&quot; href=&quot;https://github.com/developer-onizuka/rabbitMQ_KEDA_Csharp2/tree/main/rabbitmq-to-hybridCloud2&quot; style=&quot;box-sizing: border-box ; background-color: rgb(255 , 255 , 255) ; transition: 80ms cubic-bezier(0.33 , 1 , 0.68 , 1) 0s , 0s ease 0s , 0s ease 0s , 0s ease 0s ; font-family: , &amp;#34;blinkmacsystemfont&amp;#34; , &amp;#34;segoe ui&amp;#34; , &amp;#34;helvetica&amp;#34; , &amp;#34;arial&amp;#34; , sans-serif , &amp;#34;apple color emoji&amp;#34; , &amp;#34;segoe ui emoji&amp;#34;&quot;&gt;&lt;font color=&quot;#000000&quot; style=&quot;font-size: 12px&quot;&gt;rabbitmq-to-hybridCloud2&lt;/font&gt;&lt;/a&gt;" style="text;html=1;strokeColor=none;fillColor=none;align=center;verticalAlign=middle;whiteSpace=wrap;rounded=0;" parent="1" vertex="1">
          <mxGeometry x="445" y="305" width="100" height="30" as="geometry" />
        </mxCell>
        <mxCell id="C2kHwnKx9TWG-dQDNKI_-41" value="" style="shape=cylinder3;whiteSpace=wrap;html=1;boundedLbl=1;backgroundOutline=1;size=6.026069641113281;fontSize=12;fontColor=#000000;" parent="1" vertex="1">
          <mxGeometry x="580" y="290" width="80" height="60" as="geometry" />
        </mxCell>
        <mxCell id="C2kHwnKx9TWG-dQDNKI_-43" value="Employee" style="text;html=1;strokeColor=none;fillColor=none;align=center;verticalAlign=middle;whiteSpace=wrap;rounded=0;fontSize=12;fontColor=#000000;" parent="1" vertex="1">
          <mxGeometry x="590" y="260" width="60" height="30" as="geometry" />
        </mxCell>
        <mxCell id="C2kHwnKx9TWG-dQDNKI_-44" value="MongoDB" style="text;html=1;strokeColor=none;fillColor=none;align=center;verticalAlign=middle;whiteSpace=wrap;rounded=0;fontSize=12;fontColor=#000000;" parent="1" vertex="1">
          <mxGeometry x="590" y="310" width="60" height="30" as="geometry" />
        </mxCell>
        <mxCell id="7e2twPVxO9YFiDqF_idK-1" value="EmployeeEntity" style="swimlane;fontStyle=0;fontSize=10;" parent="1" vertex="1">
          <mxGeometry x="330" y="290" width="80" height="60" as="geometry">
            <mxRectangle x="390" y="170" width="120" height="23" as="alternateBounds" />
          </mxGeometry>
        </mxCell>
        <mxCell id="NL7f1OS2Pc4bBC0GKJp5-3" value="&lt;u&gt;faceRecognizerAPI&lt;br&gt;(w/ GPU Operator)&lt;br&gt;&lt;/u&gt;" style="text;html=1;strokeColor=none;fillColor=none;align=center;verticalAlign=middle;whiteSpace=wrap;rounded=0;" vertex="1" parent="1">
          <mxGeometry x="587.5" y="158.75" width="125" height="62.5" as="geometry" />
        </mxCell>
        <mxCell id="NL7f1OS2Pc4bBC0GKJp5-8" value="" style="shape=note;whiteSpace=wrap;html=1;backgroundOutline=1;darkOpacity=0.05;size=8;" vertex="1" parent="1">
          <mxGeometry x="560" y="155" width="20" height="20" as="geometry" />
        </mxCell>
        <mxCell id="NL7f1OS2Pc4bBC0GKJp5-9" value="image.jpg" style="text;html=1;strokeColor=none;fillColor=none;align=center;verticalAlign=middle;whiteSpace=wrap;rounded=0;fontSize=12;fontColor=#000000;" vertex="1" parent="1">
          <mxGeometry x="530" y="125" width="80" height="30" as="geometry" />
        </mxCell>
        <mxCell id="NL7f1OS2Pc4bBC0GKJp5-10" value="json&lt;br&gt;&lt;font style=&quot;font-size: 12px;&quot;&gt;(&lt;span style=&quot;color: rgb(32, 33, 36); font-family: inherit; text-align: left; background-color: initial;&quot;&gt;Coordinate&lt;/span&gt;&lt;span style=&quot;background-color: initial;&quot;&gt;)&lt;/span&gt;&lt;/font&gt;" style="text;html=1;strokeColor=none;fillColor=none;align=center;verticalAlign=middle;whiteSpace=wrap;rounded=0;fontSize=12;fontColor=#000000;" vertex="1" parent="1">
          <mxGeometry x="530" y="210" width="80" height="30" as="geometry" />
        </mxCell>
      </root>
    </mxGraphModel>
  </diagram>
</mxfile>
